name analog
datacolumns 19
datarows 28
range 0.4485 0.462
endheader
time	ground_force_vx	ground_force_vy	ground_force_vz	ground_force_px	ground_force_py	ground_force_pz	l_ground_force_vx	l_ground_force_vy	l_ground_force_vz	l_ground_force_px	l_ground_force_py	l_ground_force_pz	ground_torque_x	ground_torque_y	ground_torque_z	l_ground_torque_x	l_ground_torque_y	l_ground_torque_z
0.4485	-0.0	-0.0	-0.0	6.639640808105469	72.13204193115234	-437.84423828125	-8.566990852355957	-79.30013275146484	-460.0315856933594	-0.0	-0.0	-0.0	-0.0	-0.0	-0.0	62373.35546875	7147.3466796875	-9353.4365234375
0.449	-0.0	-0.0	-0.0	6.613884449005127	71.89033508300781	-439.1041564941406	-7.895259857177734	-79.03492736816406	-459.0368347167969	-0.0	-0.0	-0.0	-0.0	-0.0	-0.0	62405.46484375	6851.8857421875	-9319.041015625
0.4495	-0.0	-0.0	-0.0	6.882705211639404	71.54606628417969	-437.88970947265625	-7.933948993682861	-78.59407806396484	-457.1917419433594	-0.0	-0.0	-0.0	-0.0	-0.0	-0.0	61907.94921875	7297.97412109375	-9162.1298828125
0.45	-0.0	-0.0	-0.0	7.150657653808594	71.76377868652344	-438.5948181152344	-7.654687404632568	-78.52996063232422	-456.3944091796875	-0.0	-0.0	-0.0	-0.0	-0.0	-0.0	61913.90234375	7213.6298828125	-9250.908203125
0.4505	-0.0	-0.0	-0.0	7.010055065155029	71.5975112915039	-435.6844177246094	-7.920880317687988	-77.91152954101562	-454.34710693359375	-0.0	-0.0	-0.0	-0.0	-0.0	-0.0	61802.1640625	7239.80224609375	-9221.275390625
0.451	-0.0	-0.0	-0.0	7.251922130584717	71.74996948242188	-437.0425109863281	-7.906951904296875	-77.74636840820312	-455.3947448730469	-0.0	-0.0	-0.0	-0.0	-0.0	-0.0	61510.60546875	7240.83837890625	-9170.48046875
0.4515	-0.0	-0.0	-0.0	7.415863990783691	71.39344787597656	-435.7789611816406	-7.566158294677734	-77.53500366210938	-454.7980346679688	-0.0	-0.0	-0.0	-0.0	-0.0	-0.0	61911.63671875	7077.48291015625	-9217.0869140625
0.452	-0.0	-0.0	-0.0	7.5456461906433105	71.63833618164062	-435.86865234375	-7.300067901611328	-77.55775451660156	-454.5953979492188	-0.0	-0.0	-0.0	-0.0	-0.0	-0.0	61650.74609375	6968.43310546875	-9140.3740234375
0.4525	-0.0	-0.0	-0.0	7.772339344024658	72.06944274902344	-436.2208557128906	-7.144968509674072	-77.65690612792969	-455.6428833007813	-0.0	-0.0	-0.0	-0.0	-0.0	-0.0	61789.00390625	6975.21484375	-9043.884765625
0.453	-0.0	-0.0	-0.0	7.513402938842773	71.87603759765625	-434.6181640625	-6.172891616821289	-77.62387084960938	-454.5953979492188	-0.0	-0.0	-0.0	-0.0	-0.0	-0.0	61588.3828125	7052.833984375	-9062.9697265625
0.4535	-0.0	-0.0	-0.0	7.493682861328125	72.25862121582031	-435.4284362792969	-5.8916916847229	-77.09406280517578	-455.1489868164063	-0.0	-0.0	-0.0	-0.0	-0.0	-0.0	61757.53125	6722.25244140625	-8943.9658203125
0.454	-0.0	-0.0	-0.0	7.341506958007812	71.97021484375	-435.63720703125	-6.0323333740234375	-77.01651000976562	-455.3962097167969	-0.0	-0.0	-0.0	-0.0	-0.0	-0.0	61803.6953125	6772.919921875	-8910.8203125
0.4545	-0.0	-0.0	-0.0	7.54625654220581	72.10649108886719	-436.5713806152344	-5.604415893554688	-76.81389617919922	-454.8418884277344	-0.0	-0.0	-0.0	-0.0	-0.0	-0.0	61796.203125	6926.60009765625	-8863.380859375
0.455	-0.0	-0.0	-0.0	7.761314392089844	72.09635162353516	-434.9329833984375	-5.823107719421387	-76.48658752441406	-453.81640625	-0.0	-0.0	-0.0	-0.0	-0.0	-0.0	61563.8671875	6948.45947265625	-8919.353515625
0.4555	-0.0	-0.0	-0.0	8.180938720703125	72.33099365234375	-434.581298828125	-5.667461395263672	-76.3099365234375	-453.9760437011719	-0.0	-0.0	-0.0	-0.0	-0.0	-0.0	61686.35546875	6735.0400390625	-8917.2099609375
0.456	-0.0	-0.0	-0.0	7.771114349365234	72.04380798339844	-436.2548522949219	-5.634855270385742	-76.08099365234375	-452.4615173339844	-0.0	-0.0	-0.0	-0.0	-0.0	-0.0	61719.15234375	6848.6748046875	-8818.14453125
0.4565	-0.0	-0.0	-0.0	7.751755237579346	71.74996948242188	-436.0721130371094	-5.385008811950684	-76.21199798583984	-453.8970947265625	-0.0	-0.0	-0.0	-0.0	-0.0	-0.0	61543.80859375	6710.06396484375	-8875.115234375
0.457	-0.0	-0.0	-0.0	7.476447582244873	72.38325500488281	-435.8611755371094	-5.375466346740723	-76.16699981689453	-453.83050537109375	-0.0	-0.0	-0.0	-0.0	-0.0	-0.0	61580.3515625	6734.30908203125	-8901.5498046875
0.4575	-0.0	-0.0	-0.0	7.199398040771484	72.66900634765625	-438.72271728515625	-4.958446979522705	-76.450927734375	-452.84967041015625	-0.0	-0.0	-0.0	-0.0	-0.0	-0.0	61700.6484375	6838.85546875	-8764.9921875
0.458	-0.0	-0.0	-0.0	7.341995239257812	72.52544403076172	-436.81341552734375	-4.73649787902832	-76.28352355957031	-454.4909973144531	-0.0	-0.0	-0.0	-0.0	-0.0	-0.0	61665.96875	6915.74853515625	-8827.1416015625
0.4585	-0.0	-0.0	-0.0	7.734206676483154	72.85513305664062	-438.11907958984375	-4.604024887084961	-76.11572265625	-453.268310546875	-0.0	-0.0	-0.0	-0.0	-0.0	-0.0	61622.94140625	6701.572265625	-8761.619140625
0.459	-0.0	-0.0	-0.0	7.778648853302002	72.72175598144531	-439.921630859375	-4.435539245605469	-76.00065612792969	-453.9316711425781	-0.0	-0.0	-0.0	-0.0	-0.0	-0.0	61722.5703125	6559.837890625	-8645.78515625
0.4595	-0.0	-0.0	-0.0	7.8420634269714355	73.42501068115234	-441.0151977539063	-4.639673709869385	-75.61190032958984	-453.0261840820313	-0.0	-0.0	-0.0	-0.0	-0.0	-0.0	61581.7890625	6670.28564453125	-8716.9365234375
0.46	-0.0	-0.0	-0.0	7.485347270965576	73.80830383300781	-439.9554748535156	-4.338381290435791	-75.57672882080078	-451.5250854492188	-0.0	-0.0	-0.0	-0.0	-0.0	-0.0	61558.9296875	6843.455078125	-8707.7236328125
0.4605	-0.0	-0.0	-0.0	7.555854797363281	73.7027587890625	-441.2287902832031	-4.045653820037842	-75.02220153808594	-451.9078063964844	-0.0	-0.0	-0.0	-0.0	-0.0	-0.0	61106.41796875	6714.82421875	-8683.83203125
0.461	-0.0	-0.0	-0.0	7.796326160430908	73.95116424560547	-441.5375671386719	-4.578039646148682	-74.985107421875	-451.9396667480469	-0.0	-0.0	-0.0	-0.0	-0.0	-0.0	61314.51953125	6807.04052734375	-8654.5380859375
0.4615	-0.0	-0.0	-0.0	6.880779266357422	73.79997253417969	-443.1025390625	-4.427639007568359	-74.82743072509766	-451.2410278320313	-0.0	-0.0	-0.0	-0.0	-0.0	-0.0	61457.29296875	6834.91015625	-8729.091796875
0.462	-0.0	-0.0	-0.0	7.08994197845459	73.99788665771484	-441.9657287597656	-4.366183757781982	-74.68561553955078	-451.4228820800781	-0.0	-0.0	-0.0	-0.0	-0.0	-0.0	61435.0546875	6790.7001953125	-8713.640625
